HIERARCHY
ROOT Hips
{
	OFFSET 0.00 0.00 0.00
	CHANNELS 6 Xposition Yposition Zposition Xrotation Yrotation Zrotation
	JOINT Spine
	{
		OFFSET 0.00000 7.53995 0.00000
		CHANNELS 3 Xrotation Yrotation Zrotation
		JOINT Head
		{
			OFFSET 0.00000 15.09381 0.00000
			CHANNELS 3 Xrotation Yrotation Zrotation
			End Site
			{
				OFFSET 0.00000 4.52755 0.00000
			}
		}
		JOINT LeftShoulder
		{
			OFFSET 0.00000 9.73893 0.00000
			CHANNELS 3 Xrotation Yrotation Zrotation
			JOINT LeftArm
			{
				OFFSET 7.08401 0.00000 0.00000
				CHANNELS 3 Xrotation Yrotation Zrotation
				JOINT LeftForeArm
				{
					OFFSET 10.25932 0.00000 0.00000
					CHANNELS 3 Yrotation Zrotation Xrotation
					JOINT LeftHand
					{
						OFFSET 9.89698 0.00000 0.00000
						CHANNELS 3 Xrotation Yrotation Zrotation
						JOINT LeftHandThumb1
						{
							OFFSET 0.00000 0.00000 0.00000
							CHANNELS 3 Xrotation Zrotation Yrotation
							End Site
							{
								OFFSET 0.00000 0.00000 3.93700
							}
						}
						End Site
						{
							OFFSET 3.93700 0.00000 0.00000
						}
					}
				}
			}
		}
		JOINT RightShoulder
		{
			OFFSET 0.00000 9.73893 0.00000
			CHANNELS 3 Xrotation Yrotation Zrotation
			JOINT RightArm
			{
				OFFSET -7.08401 0.00000 0.00000
				CHANNELS 3 Xrotation Yrotation Zrotation
				JOINT RightForeArm
				{
					OFFSET -10.25932 0.00000 0.00000
					CHANNELS 3 Yrotation Zrotation Xrotation
					JOINT RightHand
					{
						OFFSET -9.89698 0.00000 0.00000
						CHANNELS 3 Xrotation Yrotation Zrotation
						JOINT RightHandThumb1
						{
							OFFSET 0.00000 0.00000 0.00000
							CHANNELS 3 Xrotation Zrotation Yrotation
							End Site
							{
								OFFSET 0.00000 0.00000 3.93700
							}
						}
						End Site
						{
							OFFSET -3.93700 0.00000 0.00000
						}
					}
				}
			}
		}
	}
	JOINT LeftUpLeg
	{
		OFFSET 3.34548 0.00000 0.00000
		CHANNELS 3 Xrotation Yrotation Zrotation
		JOINT LeftLeg
		{
			OFFSET 0.00000 -19.11473 0.00000
			CHANNELS 3 Xrotation Yrotation Zrotation
			JOINT LeftFoot
			{
				OFFSET 0.00000 -16.04560 0.00000
				CHANNELS 3 Xrotation Yrotation Zrotation
				JOINT LeftToeBase
				{
					OFFSET 0.00000 -1.43467 5.35428
					CHANNELS 3 Xrotation Yrotation Zrotation
					End Site
					{
						OFFSET 0.00000 0.00000 2.95275
					}
				}
			}
		}
	}
	JOINT RightUpLeg
	{
		OFFSET -3.34548 0.00000 0.00000
		CHANNELS 3 Xrotation Yrotation Zrotation
		JOINT RightLeg
		{
			OFFSET 0.00000 -19.11473 0.00000
			CHANNELS 3 Xrotation Yrotation Zrotation
			JOINT RightFoot
			{
				OFFSET 0.00000 -16.04560 0.00000
				CHANNELS 3 Xrotation Yrotation Zrotation
				JOINT RightToeBase
				{
					OFFSET 0.00000 -1.43467 5.35428
					CHANNELS 3 Xrotation Yrotation Zrotation
					End Site
					{
						OFFSET 0.00000 0.00000 2.95275
					}
				}
			}
		}
	}
}
MOTION
Frames: 15
Frame Time: 0.008333
 -0.9029 36.9261 5.4780 6.5707 1.9929 -0.6512 -5.3354 6.0754 0.4555 0.4463 0.0605 0.3918 -15.5498 3.2166 18.5022 -21.6726 5.2885 -17.2646 -5.3565 0.0000 24.6312 5.0579 17.4209 -16.4691 33.1476 -0.0000 26.2537 4.2740 -9.7116 -21.4364 -32.6993 -11.9666 19.4515 12.5279 -0.0000 177.1596 0.1520 2.8879 -3.0141 32.8623 0.0000 -24.3270 -4.9100 10.8535 5.4038 7.5466 -0.0000 -0.0000 -13.6869 13.4851 -16.2722 14.7263 -0.0000 0.0000 -5.7112 -9.1308 -2.1935 10.4462 0.0000 0.0000 -14.7896 -12.3614 9.6643 10.9604 0.0000 0.0000
 -0.8994 36.9258 5.4807 6.5728 1.9782 -0.6499 -5.3442 6.0703 0.4636 0.4388 0.0803 0.3646 -15.5578 3.2286 18.4899 -21.5700 5.2643 -17.2594 -5.3793 0.0000 24.4773 5.0428 17.4730 -16.3774 33.1476 -0.0000 26.2537 4.2766 -9.6977 -21.4523 -32.7041 -11.9683 19.4565 12.5446 -0.0000 177.1210 0.1523 2.8937 -3.0135 32.8623 0.0000 -24.3270 -4.9039 10.8698 5.3965 7.5434 0.0000 0.0000 -13.6891 13.4836 -16.2531 14.7037 0.0000 -0.0000 -5.7188 -9.1126 -2.1984 10.4659 -0.0000 -0.0000 -14.7726 -12.3760 9.6235 10.8396 0.0000 0.0000
 -0.8968 36.9256 5.4832 6.5775 1.9709 -0.6487 -5.3581 6.1051 0.4552 0.4425 0.0534 0.3805 -15.5574 3.2094 18.4987 -21.5782 5.2571 -17.2742 -5.3934 0.0000 24.5014 5.0448 17.4805 -16.3772 33.1476 -0.0000 26.2537 4.2661 -9.7168 -21.4463 -32.6915 -11.9712 19.4514 12.5550 -0.0000 177.1440 0.1503 2.8834 -2.9861 32.8623 0.0000 -24.3270 -4.9005 10.8664 5.3875 7.5332 -0.0000 -0.0000 -13.6911 13.5010 -16.2065 14.6752 -0.0000 0.0000 -5.7285 -9.1071 -2.2038 10.4825 -0.0000 0.0000 -14.7875 -12.3800 9.6349 10.8817 0.0000 0.0000
 -0.8942 36.9255 5.4863 6.5778 1.9703 -0.6500 -5.3711 6.1074 0.4561 0.4529 0.0571 0.3759 -15.5588 3.2046 18.5005 -21.6387 5.2619 -17.2746 -5.3793 0.0000 24.5376 5.0049 17.4717 -16.2614 33.1476 -0.0000 26.2537 4.2772 -9.7217 -21.4463 -32.7055 -11.9659 19.4519 12.5552 -0.0000 177.1347 0.1501 2.8879 -2.9762 32.8623 0.0000 -24.3270 -4.9000 10.8797 5.3852 7.5413 -0.0000 0.0000 -13.7040 13.4976 -16.1957 14.7189 0.0000 0.0000 -5.7228 -9.0930 -2.2083 10.4819 -0.0000 0.0000 -14.7858 -12.3866 9.6436 10.8773 -0.0000 -0.0000
 -0.8917 36.9249 5.4893 6.5831 1.9674 -0.6479 -5.3819 6.1012 0.4570 0.4419 0.0705 0.3544 -15.5628 3.1803 18.4784 -21.6018 5.3020 -17.2365 -5.4308 0.0000 24.5489 5.0033 17.4786 -16.2504 33.1476 -0.0000 26.2537 4.2715 -9.7284 -21.4553 -32.7179 -11.9493 19.4653 12.5587 -0.0000 177.1389 0.1545 2.9555 -2.9931 32.8623 0.0000 -24.3270 -4.8989 10.8779 5.3836 7.5498 0.0000 -0.0000 -13.7159 13.4841 -16.2207 14.7102 0.0000 0.0000 -5.7275 -9.0954 -2.2151 10.4879 0.0000 -0.0000 -14.7906 -12.3907 9.6690 10.9014 -0.0000 0.0000
 -0.8889 36.9246 5.4918 6.5859 1.9727 -0.6490 -5.3939 6.1131 0.4562 0.4477 0.0618 0.3598 -15.5571 3.1648 18.4763 -21.6982 5.3263 -17.2369 -5.4371 0.0000 24.6626 5.0025 17.4288 -16.2907 33.1476 -0.0000 26.2537 4.2663 -9.7369 -21.4547 -32.7046 -11.9488 19.4630 12.5613 -0.0000 177.1340 0.1523 2.9417 -2.9646 32.8623 0.0000 -24.3270 -4.8968 10.8696 5.3802 7.5502 -0.0000 -0.0000 -13.7274 13.4818 -16.2239 14.6886 -0.0000 0.0000 -5.7275 -9.1123 -2.2194 10.4849 -0.0000 -0.0000 -14.8038 -12.3260 9.6748 10.9951 -0.0000 0.0000
 -0.8859 36.9240 5.4943 6.5876 1.9724 -0.6497 -5.4043 6.1168 0.4578 0.4468 0.0631 0.3587 -15.5561 3.1602 18.4752 -21.6805 5.3174 -17.2432 -5.4444 0.0000 24.6662 5.0130 17.4253 -16.3264 33.1476 -0.0000 26.2537 4.2698 -9.7403 -21.4537 -32.7067 -11.9423 19.4589 12.5629 -0.0000 177.1377 0.1568 2.9798 -3.0138 32.8623 0.0000 -24.3270 -4.8913 10.8563 5.3748 7.5482 0.0000 -0.0000 -13.7300 13.5066 -16.2323 14.7008 0.0000 0.0000 -5.7282 -9.1085 -2.2233 10.4946 0.0000 0.0000 -14.7964 -12.3806 9.6588 10.8913 -0.0000 -0.0000
 -0.8838 36.9239 5.4971 6.5883 1.9671 -0.6498 -5.4137 6.1204 0.4556 0.4467 0.0741 0.3611 -15.5542 3.1601 18.4725 -21.6537 5.3090 -17.2461 -5.4608 0.0000 24.6528 5.0129 17.4089 -16.3401 33.1476 -0.0000 26.2537 4.2749 -9.7388 -21.4483 -32.7114 -11.9368 19.4596 12.5660 -0.0000 177.1090 0.1515 2.9455 -2.9464 32.8623 0.0000 -24.3270 -4.8901 10.8693 5.3733 7.5551 -0.0000 0.0000 -13.7424 13.5008 -16.2464 14.7330 -0.0000 0.0000 -5.7262 -9.1002 -2.2254 10.4963 0.0000 -0.0000 -14.8007 -12.3936 9.6701 10.8814 -0.0000 0.0000
 -0.8827 36.9243 5.4993 6.5967 1.9669 -0.6559 -5.4317 6.1267 0.4545 0.4441 0.0793 0.3756 -15.5626 3.1520 18.4754 -21.6524 5.2986 -17.2555 -5.4530 0.0000 24.6756 5.0054 17.3693 -16.3509 33.1476 -0.0000 26.2537 4.2769 -9.7429 -21.4395 -32.7260 -11.9391 19.4594 12.5681 -0.0000 177.1251 0.1585 2.9850 -3.0413 32.8623 0.0000 -24.3270 -4.8956 10.8709 5.3742 7.5484 -0.0000 -0.0000 -13.7409 13.5042 -16.1948 14.7078 0.0000 0.0000 -5.6872 -9.0495 -2.2202 10.4098 0.0000 -0.0000 -14.7620 -12.4102 9.7282 10.9115 -0.0000 0.0000
 -0.8808 36.9239 5.5021 6.6017 1.9631 -0.6625 -5.4478 6.1357 0.4621 0.4433 0.0710 0.3747 -15.5472 3.1479 18.4740 -21.7204 5.3044 -17.2608 -5.4307 0.0000 24.7462 5.0184 17.3416 -16.4153 33.1476 -0.0000 26.2537 4.2780 -9.7534 -21.4525 -32.7217 -11.9515 19.4765 12.5930 -0.0000 177.1155 0.1624 3.0047 -3.0947 32.8623 0.0000 -24.3270 -4.8968 10.8716 5.3829 7.5546 -0.0000 -0.0000 -13.7524 13.4985 -16.2460 14.7177 0.0000 0.0000 -5.6834 -9.0374 -2.2157 10.4020 -0.0000 -0.0000 -14.7559 -12.4134 9.7328 10.8496 0.0000 0.0000
 -0.8780 36.9237 5.5053 6.6028 1.9591 -0.6638 -5.4616 6.1331 0.4624 0.4334 0.1144 0.3461 -15.5360 3.1461 18.4603 -21.6428 5.2847 -17.2536 -5.4459 0.0000 24.7115 5.0598 17.3386 -16.5466 33.1476 -0.0000 26.2537 4.2833 -9.7512 -21.4436 -32.7311 -11.9351 19.4749 12.5878 -0.0000 177.1201 0.1587 2.9582 -3.0727 32.8623 0.0000 -24.3270 -4.8889 10.8701 5.3802 7.5516 0.0000 -0.0000 -13.7545 13.4990 -16.2439 14.6975 -0.0000 -0.0000 -5.6810 -9.0351 -2.2167 10.3987 0.0000 -0.0000 -14.7657 -12.3708 9.7546 10.9619 0.0000 0.0000
 -0.8746 36.9237 5.5073 6.6034 1.9595 -0.6648 -5.4675 6.1343 0.4658 0.4354 0.1118 0.3633 -15.5447 3.1459 18.4617 -21.6837 5.2864 -17.2704 -5.4368 0.0000 24.7819 5.0695 17.3294 -16.5848 33.1476 -0.0000 26.2537 4.2898 -9.7534 -21.4372 -32.7647 -11.9378 19.4694 12.5922 -0.0000 177.1168 0.1598 2.9719 -3.0785 32.8623 0.0000 -24.3270 -4.8886 10.8809 5.3719 7.5491 -0.0000 0.0000 -13.7542 13.4991 -16.2050 14.7017 -0.0000 0.0000 -5.6819 -9.0490 -2.2223 10.4035 -0.0000 0.0000 -14.7650 -12.3597 9.7745 10.9396 0.0000 0.0000
 -0.8701 36.9232 5.5114 6.6033 1.9498 -0.6633 -5.4811 6.1423 0.4699 0.4377 0.1031 0.3625 -15.5330 3.1596 18.4643 -21.6981 5.2674 -17.2967 -5.4178 0.0000 24.8076 5.0781 17.3342 -16.6074 33.1476 -0.0000 26.2537 4.2948 -9.7583 -21.4360 -32.7800 -11.9224 19.4751 12.5807 -0.0000 177.0995 0.1609 3.0006 -3.0705 32.8623 0.0000 -24.3270 -4.8749 10.8859 5.3629 7.5542 -0.0000 0.0000 -13.7381 13.3954 -16.0427 14.3971 -0.0000 -0.0000 -5.6747 -9.0454 -2.2312 10.4045 -0.0000 0.0000 -14.7555 -12.4029 9.7500 10.8718 -0.0000 0.0000
 -0.8676 36.9230 5.5140 6.6036 1.9509 -0.6636 -5.4882 6.1401 0.4664 0.4315 0.0970 0.3765 -15.5234 3.1621 18.4649 -21.6655 5.2476 -17.3121 -5.4145 0.0000 24.7828 5.0815 17.3362 -16.6161 33.1476 -0.0000 26.2537 4.2896 -9.7549 -21.4302 -32.7893 -11.9266 19.4834 12.5931 -0.0000 177.0915 0.1606 2.9787 -3.0871 32.8623 0.0000 -24.3270 -4.8660 10.8712 5.3621 7.5440 -0.0000 0.0000 -13.7796 13.5017 -16.2255 14.7199 -0.0000 0.0000 -5.6722 -9.0502 -2.2345 10.4038 -0.0000 -0.0000 -14.7554 -12.4116 9.7448 10.8996 0.0000 -0.0000
 -0.8645 36.9229 5.5165 6.6035 1.9518 -0.6624 -5.4963 6.1441 0.4636 0.4224 0.1013 0.3682 -15.5207 3.1601 18.4612 -21.6349 5.2273 -17.3296 -5.4122 0.0000 24.7786 5.0788 17.3449 -16.6001 33.1476 -0.0000 26.2537 4.2830 -9.7440 -21.4175 -32.7925 -11.9321 19.4718 12.5994 -0.0000 177.1065 0.1565 2.9086 -3.0817 32.8623 0.0000 -24.3270 -4.8617 10.8734 5.3515 7.5378 0.0000 0.0000 -13.7812 13.5169 -16.1872 14.6823 0.0000 -0.0000 -5.6687 -9.0541 -2.2393 10.4012 -0.0000 -0.0000 -14.7523 -12.4011 9.7607 10.9042 -0.0000 0.0000
